<?xml version="1.0" encoding="iso-8859-1"?>
<!-- Generator: Adobe Illustrator 16.0.0, SVG Export Plug-In . SVG Version: 6.00 Build 0)  -->
<!DOCTYPE svg PUBLIC "-//W3C//DTD SVG 1.1//EN" "http://www.w3.org/Graphics/SVG/1.1/DTD/svg11.dtd">
<svg version="1.1" id="Capa_1" xmlns="http://www.w3.org/2000/svg" xmlns:xlink="http://www.w3.org/1999/xlink" x="0px" y="0px"
	 width="42.192px" height="42.192px" viewBox="0 0 42.192 42.192" style="enable-background:new 0 0 42.192 42.192;"
	 xml:space="preserve">
<g>
	<path d="M35.387,17.889h-0.725C32.85,12.454,27.455,8.5,21.096,8.5S9.339,12.454,7.531,17.889H6.805
		c-1.505,0-2.729,1.227-2.729,2.729v3.182c0,1.506,1.226,2.73,2.729,2.73h0.647c2.603,10.068,13.239,12.898,13.361,12.934
		l0.275,0.068l0.274-0.066c0.122-0.029,10.801-2.748,13.385-12.936h0.638c1.506,0,2.729-1.227,2.729-2.73v-3.182
		C38.117,19.116,36.893,17.889,35.387,17.889z M30.285,30.842h-7.16c-0.346-0.631-1.016-1.061-1.786-1.061
		c-1.124,0-2.036,0.912-2.036,2.037s0.912,2.033,2.036,2.033c0.896,0,1.655-0.58,1.928-1.385h5.664
		c-3.016,3.143-6.766,4.397-7.829,4.705c-1.86-0.558-11.939-4.086-11.939-15.291c0-0.187,0.007-0.369,0.017-0.553
		c3.087-0.58,6.698-1.549,7.922-3.033c0,0,0.488,2.771-1.304,3.907c0,0,6.354-0.978,7.493-2.932c0,0,0.228,5.063,9.638,4.508
		C32.617,26.697,31.602,29.008,30.285,30.842z M42.192,21.489v1.443c0,1.228-1.103,2.188-2.509,2.188h-1.088v-1.465v-2.892v-0.922
		c-0.237-8.523-7.68-14.901-17.5-14.901c-9.817,0-17.254,6.371-17.498,14.892v0.936v2.891v1.467H2.509
		C1.103,25.125,0,24.165,0,22.938v-1.444c0-0.852,0.53-1.572,1.323-1.938C1.716,9.874,10.081,2.661,21.095,2.661
		c11.013,0,19.379,7.213,19.771,16.891C41.66,19.913,42.192,20.636,42.192,21.489z"/>
</g>
<g>
</g>
<g>
</g>
<g>
</g>
<g>
</g>
<g>
</g>
<g>
</g>
<g>
</g>
<g>
</g>
<g>
</g>
<g>
</g>
<g>
</g>
<g>
</g>
<g>
</g>
<g>
</g>
<g>
</g>
</svg>
